<?xml version="1.0" encoding="utf-8"?>
<!-- Generator: Adobe Illustrator 28.1.0, SVG Export Plug-In . SVG Version: 6.00 Build 0)  -->
<svg version="1.1" id="Слой_1" xmlns="http://www.w3.org/2000/svg" xmlns:xlink="http://www.w3.org/1999/xlink" x="0px" y="0px"
	 viewBox="0 0 271 304" style="enable-background:new 0 0 271 304;" xml:space="preserve">
<style type="text/css">
	.st0{fill:#0077FF;}
</style>
<g>
	<path class="st0" d="M270.4,89.4c0-5.1-1.1-9.6-3.3-13.5c-2.2-3.8-5.4-7-9.8-9.5C221.4,45.7,185.4,25,149.5,4.3
		c-9.7-5.6-19.1-5.4-28.7,0.3C106.5,13,34.8,54,13.5,66.4c-8.8,5.1-13.1,12.9-13.1,23c0,41.7,0,83.4,0,125c0,5,1,9.4,3.2,13.2
		c2.2,3.9,5.5,7.2,9.9,9.8c21.3,12.4,93,53.4,107.3,61.8c9.6,5.7,19,5.9,28.7,0.3c35.9-20.7,71.9-41.4,107.9-62.1
		c4.5-2.6,7.7-5.9,9.9-9.8c2.1-3.8,3.2-8.2,3.2-13.2C270.4,214.4,270.4,131.1,270.4,89.4z M135.4,241.6c-33.3,0-62.3-18.1-77.8-45
		c-7.6-13.1-11.9-28.4-11.9-44.6c0-49.5,40.1-89.7,89.7-89.7c33.2,0,62.1,18,77.6,44.8l-39,22.5c-7.7-13.3-22.1-22.2-38.6-22.2
		c-24.7,0-44.6,20-44.6,44.6c0,8.1,2.1,15.6,5.9,22.2c7.7,13.4,22.2,22.5,38.8,22.5c16.7,0,31.2-9.2,38.9-22.8l39,22.6
		C197.8,223.4,168.8,241.6,135.4,241.6z M250.5,146.8h-7.2v10.8h7.2v8.9h-7.2v7.2h-8.9v-7.2h-10.8v7.2h-8.9v-7.2h-7.2v-8.9h7.2
		v-10.8h-7.2v-8.9h7.2v-7.2h8.9v7.2h10.8v-7.2h8.9v7.2h7.2V146.8z"/>
	<rect x="223.6" y="146.8" class="st0" width="10.8" height="10.8"/>
</g>
</svg>
