<svg width="271" height="304" xmlns="http://www.w3.org/2000/svg">

 <g>
  <title>Layer 1</title>
  <g>
   <g fill-rule="nonzero">
    <g transform="matrix(0.831388, 0, 0, 0.831388, 145, 48.2714)">
     <path fill="#0077ff" d="m150.83512,49.49273c-0.003,-6.137 -1.315,-11.56 -3.97,-16.214c-2.607,-4.577 -6.511,-8.413 -11.75,-11.446c-43.234,-24.929 -86.509,-49.782 -129.73,-74.737c-11.652,-6.726 -22.949,-6.481 -34.515,0.342c-17.208,10.149 -103.366,59.51 -129.039,74.381c-10.574,6.12 -15.719,15.487 -15.721,27.663c-0.016,50.134 0,100.266 -0.016,150.402c0.002,6.002 1.259,11.32 3.796,15.904c2.609,4.715 6.568,8.657 11.926,11.758c25.676,14.871 111.845,64.229 129.049,74.38c11.571,6.827 22.868,7.071 34.524,0.342c43.221,-24.956 86.5,-49.808 129.741,-74.736c5.358,-3.101 9.317,-7.045 11.926,-11.756c2.534,-4.585 3.793,-9.903 3.796,-15.905c0,0 0,-100.243 -0.017,-150.378z"/>
     <path fill="#0077ff" d="m-11.03088,124.19373l-159.079,91.594c2.609,4.715 6.568,8.657 11.926,11.758c25.676,14.871 111.845,64.229 129.049,74.38c11.571,6.827 22.868,7.071 34.524,0.342c43.221,-24.956 86.5,-49.808 129.741,-74.736c5.358,-3.101 9.317,-7.045 11.926,-11.756l-158.087,-91.582z"/>
     <path fill="#0077ff" d="m-58.14788,151.32473c9.257,16.16 26.659,27.06 46.621,27.06c20.085,0 37.586,-11.038 46.796,-27.371l-46.3,-26.82l-47.117,27.131z"/>
     <path fill="#0077ff" d="m150.83512,49.49273c-0.003,-6.137 -1.315,-11.56 -3.97,-16.214l-157.896,90.915l158.087,91.582c2.534,-4.585 3.793,-9.903 3.796,-15.905c0,0 0,-100.243 -0.017,-150.378z"/>
     <path fill="#fff" d="m35.26912,151.01373c-9.21,16.333 -26.711,27.371 -46.796,27.371c-19.962,0 -37.364,-10.9 -46.621,-27.06c-4.496,-7.853 -7.082,-16.945 -7.082,-26.643c0,-29.659 24.044,-53.702 53.703,-53.702c19.834,0 37.143,10.764 46.446,26.759l46.939,-27.03c-18.657,-32.205 -53.489,-53.873 -93.385,-53.873c-59.564,0 -107.848,48.285 -107.848,107.846c0,19.54 5.198,37.864 14.284,53.67c18.61,32.376 53.542,54.177 93.564,54.177c40.095,0 75.082,-21.888 93.665,-54.36l-46.869,-27.155z"/>
    </g>
    <g stroke-width="0.83139" fill="#fff">
     <path d="m214.76516,130.73074l8.86842,0l0,42.95449l-8.86842,0l0,-42.95449z"/>
     <path d="m234.44162,130.73074l8.86759,0l0,42.95449l-8.86759,0l0,-42.95449z"/>
     <path d="m207.55952,137.93638l42.95533,0l0,8.86758l-42.95533,0l0,-8.86758z"/>
     <path d="m207.55952,157.612l42.95533,0l0,8.86842l-42.95533,0l0,-8.86842z"/>
    </g>
   </g>
  </g>
 </g>
</svg>